<?xml version="1.0" encoding="UTF-8"?>
<svg id="Layer_1" xmlns="http://www.w3.org/2000/svg" version="1.1" viewBox="0 0 150 19.7">
  <!-- Generator: Adobe Illustrator 30.1.0, SVG Export Plug-In . SVG Version: 2.1.1 Build 136)  -->
  <defs>
    <style>
      .st0 {
        fill: #f7b132;
      }

      .st1 {
        fill: #fff;
      }
    </style>
  </defs>
  <g>
    <path class="st1" d="M26.2,18.6v.7c-1.1,0-2.1-.4-2.9-1.2-.8-.8-1.2-1.7-1.2-2.9V3.8h.8v4.4h3.3v.7h-3.3v6.2c0,1,.3,1.8,1,2.4s1.5,1,2.4,1Z"/>
    <path class="st1" d="M26.7,19.7h-.4c-1.3,0-2.4-.4-3.2-1.3-.9-.9-1.3-1.9-1.3-3.3V3.4h1.7v4.4h3.3v1.6h-3.3v5.8c0,.9.3,1.6.8,2.1.6.6,1.2.8,2.1.8h.4v1.6h0Z"/>
  </g>
  <g>
    <path class="st1" d="M32.6,8.8c-.9,0-1.6.3-2.3,1-.7.6-1,1.4-1,2.2v7.3h-.8v-10.9h.8v1.6c.3-.5.7-1,1.4-1.4.6-.4,1.3-.5,2.1-.5s1.5.3,2.2.8v1c-.7-.7-1.5-1.1-2.4-1.1h0Z"/>
    <path class="st1" d="M29.8,19.7h-1.7V7.9h1.7v.8c.2-.2.4-.3.7-.5.7-.4,1.4-.6,2.3-.6s1.7.3,2.4.9h.2v2.4l-.8-.8c-.6-.6-1.3-.9-2-.9s-1.4.3-1.9.8c-.6.6-.8,1.2-.8,1.9v7.7h0Z"/>
  </g>
  <g>
    <path class="st1" d="M57.7,3.4l-3.2,2.8h-.7l-3.2-2.8h1l2.6,2.2,2.6-2.2h1,0ZM53.7,8.5c-.4,0-.8.1-1.1.4s-.5.6-.5,1,.2.8.5,1.1c.4.3.8.6,1.3.9s1,.6,1.5.9c.5.3,1,.7,1.3,1.2s.5,1.1.5,1.7c0,1-.4,1.8-1.1,2.4-.7.7-1.6,1-2.6,1s-1.2-.1-1.8-.4-1-.7-1.2-1.1v-1.2c.6,1.4,1.6,2,3,2s1.5-.3,2.1-.8c.6-.5.9-1.1.9-1.7s-.2-1.2-.5-1.6c-.4-.4-.8-.8-1.3-1.1s-1-.6-1.5-.9c-.5-.3-.9-.7-1.3-1.1-.4-.4-.5-.9-.5-1.5s.2-1.1.7-1.5c.5-.4,1.1-.6,1.8-.6s1.3.3,1.9.8v1c-.5-.8-1.2-1.2-2-1.2h0Z"/>
    <path class="st1" d="M53.7,19.7c-.7,0-1.4-.2-2-.5-.6-.3-1.1-.8-1.4-1.3h0v-3.5l.9,1.9c.5,1.2,1.4,1.8,2.5,1.8s1.3-.2,1.8-.7c.5-.4.7-.9.7-1.4s-.1-1-.4-1.3c-.3-.4-.7-.7-1.2-1-.5-.3-1-.6-1.5-.9-.6-.3-1-.7-1.4-1.2-.4-.5-.7-1.1-.7-1.8s.3-1.3.8-1.8c.5-.5,1.2-.7,2.1-.7s1.6.3,2.2,1h.1v2.8l-.8-1.2c-.4-.6-1-1-1.6-1s-.6.1-.8.3c-.2.2-.3.4-.3.7s.1.5.4.8c.3.3.7.6,1.2.9.5.3,1,.6,1.6.9.6.4,1.1.8,1.4,1.4.4.6.6,1.2.6,2,0,1.1-.4,2-1.2,2.8-.8.8-1.8,1.1-2.9,1.1h0ZM54.6,6.6h-1.1l-4.3-3.7h2.4l2.4,2.1,2.4-2.1h2.4l-4.2,3.7h0Z"/>
  </g>
  <g>
    <path class="st1" d="M60.4,1.1h.8v11l4.3-3.8h1l-5,4.4,6.3,6.5h-1l-5.5-5.7v5.7h-.8V1.1h0Z"/>
    <polygon class="st1" points="68.8 19.7 66.5 19.7 61.6 14.6 61.6 19.7 59.9 19.7 59.9 .7 61.6 .7 61.6 11.1 65.3 7.9 67.7 7.9 62.1 12.7 68.8 19.7"/>
  </g>
  <g>
    <path class="st1" d="M71.3,8.4v10.9h-.8v-10.9h.8Z"/>
    <rect class="st1" x="70.1" y="7.9" width="1.7" height="11.8"/>
  </g>
  <g>
    <path class="st1" d="M83.9,1.1h.8v11l4.3-3.8h1l-5,4.4,6.3,6.5h-1l-5.5-5.7v5.7h-.8V1.1h0Z"/>
    <polygon class="st1" points="92.3 19.7 90 19.7 85.1 14.6 85.1 19.7 83.4 19.7 83.4 .7 85.1 .7 85.1 11.1 88.8 7.9 91.1 7.9 85.6 12.7 92.3 19.7"/>
  </g>
  <g>
    <path class="st0" d="M3.2,16.4C1.4,14.5.5,12.3.5,9.8s.9-4.7,2.8-6.6C5.1,1.4,7.3.4,9.9.4s4.8.9,6.7,2.8c1.8,1.8,2.8,4,2.8,6.6s-.9,4.8-2.7,6.6c-1.8,1.9-4,2.8-6.5,2.8h-.4c-2.5,0-4.7-.9-6.5-2.8h0ZM18.5,9.8c0-2.4-.8-4.4-2.5-6.1-1.7-1.7-3.7-2.6-6.1-2.6s-4.4.9-6.1,2.6c-1.7,1.7-2.5,3.7-2.5,6.1s.8,4.4,2.5,6.1c1.7,1.7,3.7,2.6,6.1,2.6s4.4-.9,6.1-2.6c1.7-1.7,2.5-3.8,2.5-6.1Z"/>
    <path class="st0" d="M10.1,19.7h-.4c-2.6,0-4.9-1-6.8-3-1.9-2-2.9-4.3-2.9-6.9S1,4.8,2.9,2.9C4.9,1,7.2,0,9.9,0s5.1,1,7,2.9c1.9,1.9,2.9,4.2,2.9,6.9s-1,5-2.9,6.9c-1.9,2-4.2,3-6.9,3h0ZM9.9,1.6c-2.2,0-4.2.8-5.8,2.4-1.6,1.6-2.4,3.6-2.4,5.8s.8,4.2,2.4,5.8c1.6,1.6,3.5,2.4,5.8,2.4s4.2-.8,5.8-2.4c1.6-1.6,2.4-3.6,2.4-5.8s-.8-4.2-2.4-5.8c-1.6-1.6-3.5-2.4-5.8-2.4h0Z"/>
  </g>
  <g>
    <path class="st0" d="M38.5,17.5c-1.1-1.2-1.7-2.5-1.7-4s.6-2.9,1.7-4c1.1-1.1,2.5-1.7,4.1-1.7s2.9.6,4.1,1.7c1.1,1.1,1.7,2.5,1.7,4s-.5,2.9-1.6,4c-1.1,1.1-2.4,1.7-4,1.7h-.2c-1.5,0-2.9-.6-4-1.7h0ZM47.6,13.5c0-1.4-.5-2.6-1.5-3.5-1-1-2.1-1.5-3.5-1.5s-2.5.5-3.5,1.5c-1,1-1.5,2.2-1.5,3.5s.5,2.5,1.5,3.5c1,1,2.2,1.5,3.5,1.5s2.5-.5,3.5-1.5,1.5-2.2,1.5-3.5Z"/>
    <path class="st0" d="M42.7,19.7h-.2c-1.7,0-3.1-.6-4.3-1.9h0c-1.2-1.2-1.8-2.7-1.8-4.3s.6-3.1,1.8-4.3c1.2-1.2,2.7-1.8,4.4-1.8s3.2.6,4.4,1.8c1.2,1.2,1.8,2.7,1.8,4.3s-.6,3.1-1.8,4.3c-1.2,1.2-2.6,1.9-4.3,1.9h0ZM42.6,8.9c-1.2,0-2.3.4-3.2,1.4-.9.9-1.4,2-1.4,3.2s.4,2.3,1.4,3.2,2,1.4,3.2,1.4,2.3-.4,3.2-1.4c.9-.9,1.3-2,1.3-3.2s-.4-2.3-1.3-3.2c-.9-.9-1.9-1.4-3.2-1.4h0Z"/>
  </g>
  <g>
    <path class="st0" d="M69.1,5.9c-.5-.5-.7-1.1-.7-1.8s.2-1.2.7-1.7c.5-.5,1.1-.7,1.8-.7s1.3.2,1.8.7.7,1.1.7,1.7-.2,1.3-.7,1.8c-.5.5-1.1.8-1.7.8h0c-.7,0-1.3-.3-1.7-.8h0ZM73.1,4.2c0-.6-.2-1.1-.6-1.5-.4-.4-.9-.7-1.5-.7s-1.1.2-1.5.7-.6,1-.6,1.5.2,1.1.6,1.5.9.6,1.5.6,1.1-.2,1.5-.6c.4-.4.6-.9.6-1.5Z"/>
    <path class="st0" d="M70.9,7.1h0c-.8,0-1.5-.3-2.1-.9-.6-.6-.9-1.3-.9-2.1s.3-1.5.9-2.1c.6-.6,1.3-.9,2.1-.9s1.5.3,2.1.9c.6.6.9,1.3.9,2.1s-.3,1.5-.8,2.1c-.6.6-1.3.9-2.1.9h0ZM70.9,2.4c-.5,0-.9.2-1.2.5-.3.4-.5.8-.5,1.2s.2.9.5,1.2.7.5,1.2.5.9-.2,1.2-.5c.3-.3.5-.8.5-1.2s-.2-.9-.5-1.2c-.3-.3-.7-.5-1.2-.5Z"/>
  </g>
  <g>
    <path class="st0" d="M111.4,5.9c-.5-.5-.7-1.1-.7-1.8s.2-1.2.7-1.7c.5-.5,1.1-.7,1.8-.7s1.3.2,1.8.7.7,1.1.7,1.7-.2,1.3-.7,1.8-1.1.8-1.7.8h0c-.7,0-1.3-.3-1.7-.8h0ZM115.3,4.2c0-.6-.2-1.1-.6-1.5-.4-.4-.9-.7-1.5-.7s-1.1.2-1.5.7-.6,1-.6,1.5.2,1.1.6,1.5.9.6,1.5.6,1.1-.2,1.5-.6c.4-.4.6-.9.6-1.5Z"/>
    <path class="st0" d="M113.2,7.1h0c-.8,0-1.5-.3-2.1-.9-.6-.6-.9-1.3-.9-2.1s.3-1.5.9-2.1c.6-.6,1.3-.9,2.1-.9s1.5.3,2.1.9c.6.6.9,1.3.9,2.1s-.3,1.5-.8,2.1c-.6.6-1.3.9-2.1.9h0ZM113.2,2.4c-.5,0-.9.2-1.2.5-.3.4-.5.8-.5,1.2s.2.9.5,1.2.7.5,1.2.5.9-.2,1.2-.5c.3-.3.5-.8.5-1.2s-.2-.9-.5-1.2c-.3-.3-.7-.5-1.2-.5h0Z"/>
  </g>
  <g>
    <path class="st0" d="M93.6,17.5c-1.1-1.2-1.7-2.5-1.7-4s.6-2.9,1.7-4c1.1-1.1,2.5-1.7,4.1-1.7s2.9.6,4.1,1.7c1.1,1.1,1.7,2.5,1.7,4s-.5,2.9-1.6,4c-1.1,1.1-2.4,1.7-4,1.7h-.2c-1.5,0-2.9-.6-4-1.7ZM102.7,13.5c0-1.4-.5-2.6-1.5-3.5-1-1-2.1-1.5-3.5-1.5s-2.5.5-3.5,1.5c-1,1-1.5,2.2-1.5,3.5s.5,2.5,1.5,3.5c1,1,2.2,1.5,3.5,1.5s2.5-.5,3.5-1.5,1.5-2.2,1.5-3.5Z"/>
    <path class="st0" d="M97.8,19.7h-.2c-1.7,0-3.1-.6-4.3-1.9-1.2-1.2-1.8-2.7-1.8-4.3s.6-3.1,1.8-4.3c1.2-1.2,2.7-1.8,4.4-1.8s3.2.6,4.4,1.8,1.8,2.7,1.8,4.3-.6,3.1-1.8,4.3c-1.2,1.2-2.6,1.9-4.3,1.9h0ZM97.7,8.9c-1.2,0-2.3.4-3.2,1.4-.9.9-1.4,2-1.4,3.2s.4,2.3,1.4,3.2c.9.9,2,1.4,3.2,1.4s2.3-.4,3.2-1.4c.9-.9,1.3-2,1.3-3.2s-.4-2.3-1.3-3.2c-.9-.9-1.9-1.4-3.2-1.4h0Z"/>
  </g>
  <g>
    <path class="st1" d="M110.1,18.6v.7c-1.1,0-2.1-.4-2.9-1.2-.8-.8-1.2-1.7-1.2-2.9V3.8h.8v4.4h3.3v.7h-3.3v6.2c0,1,.3,1.8,1,2.4.7.6,1.5,1,2.4,1h0Z"/>
    <path class="st1" d="M110.6,19.7h-.4c-1.3,0-2.4-.4-3.2-1.3-.9-.9-1.3-1.9-1.3-3.3V3.4h1.7v4.4h3.3v1.6h-3.3v5.8c0,.9.3,1.6.8,2.1.6.6,1.2.8,2.1.8h.4v1.6h0Z"/>
  </g>
  <g>
    <path class="st1" d="M113.6,8.4v10.9h-.8v-10.9h.8Z"/>
    <rect class="st1" x="112.3" y="7.9" width="1.7" height="11.8"/>
  </g>
  <g>
    <path class="st1" d="M122.5,19.2h-.2c-1.5,0-2.9-.6-4-1.7s-1.7-2.5-1.7-4,.6-2.9,1.7-4c1.1-1.1,2.5-1.7,4.2-1.7s3.1.6,4.2,1.9v1.2c-.5-.7-1.1-1.3-1.9-1.8-.8-.4-1.6-.7-2.4-.7-1.3,0-2.5.5-3.5,1.5-1,1-1.5,2.2-1.5,3.5s.5,2.6,1.5,3.5c1,1,2.2,1.5,3.5,1.5s1.6-.2,2.4-.7,1.4-1,1.9-1.8v1.3c-1.1,1.2-2.5,1.9-4.2,1.9h0ZM126.1,3.3l-3.2,2.8h-.7l-3.2-2.8h1l2.6,2.2,2.6-2.2h1,0Z"/>
    <path class="st1" d="M122.5,19.7h-.2c-1.7,0-3.1-.6-4.3-1.9-1.2-1.2-1.8-2.7-1.8-4.3s.6-3.1,1.8-4.3c1.2-1.2,2.7-1.8,4.5-1.8s3.3.7,4.5,2h.1v3l-.8-1.2c-.5-.7-1.1-1.2-1.8-1.6-.7-.4-1.4-.6-2.2-.6-1.2,0-2.3.4-3.2,1.4-.9.9-1.4,2-1.4,3.2s.4,2.3,1.4,3.2c.9.9,2,1.4,3.2,1.4s1.5-.2,2.2-.6c.7-.4,1.3-1,1.7-1.6l.8-1.3v2.9h-.1c-1.2,1.5-2.7,2.1-4.5,2.1h0ZM123,6.6h-1.1l-4.3-3.7h2.4l2.4,2.1,2.4-2.1h2.4l-4.2,3.7h0Z"/>
  </g>
  <g>
    <path class="st1" d="M134.6,19.2h-.2c-1.5,0-2.9-.6-4-1.7-1.1-1.2-1.7-2.5-1.7-4s.6-2.9,1.7-4c1.1-1.1,2.5-1.7,4.2-1.7s3.1.7,4.3,2l-7.6,7.5c1,.8,2.1,1.3,3,1.3s1.8-.2,2.6-.7,1.4-1,1.9-1.8v1.2c-1.1,1.3-2.5,1.9-4.2,1.9h0ZM134.4,8.5c-1.3,0-2.4.5-3.4,1.5-1,1-1.5,2.1-1.5,3.4s.4,2.4,1.3,3.4l7-7c-1-.9-2.1-1.3-3.4-1.3h0Z"/>
    <path class="st1" d="M134.6,19.7h-.2c-1.6,0-3.1-.6-4.3-1.9-1.2-1.2-1.8-2.7-1.8-4.4s.6-3.1,1.8-4.3,2.7-1.8,4.5-1.8,3.3.7,4.6,2.1l.3.3-7.5,7.4c.8.6,1.6.9,2.3.9s1.7-.2,2.4-.6c.7-.4,1.3-1,1.8-1.6l.8-1.2v2.9h-.1c-1.2,1.5-2.7,2.2-4.5,2.2h0ZM134.4,8.9c-1.2,0-2.2.4-3.1,1.4-.9.9-1.4,1.9-1.4,3.1s.3,1.9.9,2.7l6.3-6.3c-.8-.6-1.7-.9-2.8-.9h0Z"/>
  </g>
  <g>
    <path class="st1" d="M141.6,1.1h.8v11l4.3-3.8h1l-5,4.4,6.3,6.5h-1l-5.5-5.7v5.7h-.8V1.1h0Z"/>
    <polygon class="st1" points="150 19.7 147.7 19.7 142.8 14.6 142.8 19.7 141.2 19.7 141.2 .7 142.8 .7 142.8 11.1 146.5 7.9 148.9 7.9 143.3 12.7 150 19.7"/>
  </g>
</svg>