<?xml version="1.0" encoding="UTF-8"?><svg id="a" xmlns="http://www.w3.org/2000/svg" viewBox="0 0 150 19.71"><defs><style>.b{fill:#f7b132;}.c{fill:#fff;}</style></defs><path class="c" d="M26.22,18.56v.68c-1.15,0-2.12-.38-2.93-1.15-.81-.77-1.21-1.75-1.21-2.94V3.82h.77v4.41h3.34v.68h-3.34v6.25c0,.98.32,1.8.98,2.45s1.45.97,2.39.97Z"/><path class="c" d="M26.67,19.69h-.45c-1.26,0-2.35-.43-3.24-1.27-.89-.85-1.35-1.95-1.35-3.27V3.37h1.67v4.41h3.34v1.58h-3.34v5.8c0,.87.28,1.57.85,2.12.57.56,1.25.84,2.07.84h.45v1.58h0Z"/><path class="c" d="M32.62,8.76c-.86,0-1.61.32-2.26.97-.65.65-.98,1.4-.98,2.25v7.27h-.77v-10.9h.77v1.62c.29-.55.74-1,1.36-1.36.61-.35,1.3-.53,2.06-.53s1.49.26,2.18.77v.97c-.71-.71-1.49-1.07-2.35-1.07h0Z"/><path class="c" d="M29.82,19.7h-1.67V7.9h1.67v.81c.2-.17.43-.34.68-.48.68-.4,1.45-.59,2.29-.59s1.68.29,2.45.86l.18.13v2.28l-.77-.77c-.63-.63-1.3-.94-2.03-.94s-1.38.28-1.95.84c-.57.56-.85,1.19-.85,1.93v7.72h0Z"/><path class="c" d="M57.66,3.39l-3.2,2.78h-.73l-3.25-2.78h1.02l2.57,2.2,2.59-2.2h1,0ZM53.74,8.47c-.42,0-.79.14-1.12.41s-.49.61-.49,1.02.18.77.55,1.12c.37.34.8.65,1.31.93s1.02.59,1.54.91c.52.32.95.74,1.32,1.24s.55,1.07.55,1.72c0,.95-.36,1.76-1.08,2.44-.72.67-1.58,1.01-2.6,1.01-.65,0-1.25-.14-1.81-.43s-.97-.66-1.22-1.13v-1.16c.61,1.36,1.6,2.03,2.95,2.03.84,0,1.55-.26,2.12-.77.58-.52.86-1.09.86-1.73s-.18-1.18-.55-1.61c-.37-.44-.8-.81-1.32-1.12s-1.03-.61-1.54-.91c-.51-.3-.94-.66-1.31-1.09-.37-.43-.55-.93-.55-1.5s.23-1.06.69-1.45c.46-.4,1.06-.59,1.78-.59s1.35.28,1.87.85v1c-.52-.77-1.17-1.16-1.96-1.16h.01Z"/><path class="c" d="M53.71,19.7c-.71,0-1.39-.16-2.01-.47-.64-.32-1.11-.76-1.42-1.31l-.05-.1v-3.37l.86,1.9c.54,1.19,1.37,1.77,2.54,1.77.73,0,1.33-.22,1.82-.66.48-.43.71-.89.71-1.4s-.14-.97-.44-1.32c-.33-.4-.73-.74-1.21-1.01-.52-.31-1.03-.61-1.54-.91-.55-.32-1.03-.72-1.42-1.19-.43-.51-.65-1.11-.65-1.79s.28-1.31.85-1.79c.54-.47,1.24-.7,2.08-.7s1.6.34,2.2,1l.12.13v2.65l-.82-1.24c-.43-.65-.95-.96-1.59-.96-.31,0-.58.1-.82.31-.22.19-.32.4-.32.67s.13.53.4.79c.34.31.74.61,1.22.87.52.29,1.04.59,1.56.92.56.35,1.05.81,1.45,1.35.42.58.63,1.24.63,1.99,0,1.08-.41,2.01-1.22,2.77-.8.75-1.78,1.13-2.91,1.13h0ZM54.63,6.62h-1.06l-4.3-3.68h2.4l2.4,2.06,2.42-2.06h2.36l-4.23,3.68h0Z"/><path class="c" d="M60.37,1.13h.77v11l4.31-3.78h1l-4.99,4.36,6.25,6.54h-1.04l-5.52-5.74v5.74h-.77V1.13h0Z"/><polygon class="c" points="68.77 19.7 66.48 19.7 61.6 14.62 61.6 19.7 59.92 19.7 59.92 .68 61.6 .68 61.6 11.14 65.29 7.9 67.65 7.9 62.11 12.74 68.77 19.7"/><path class="c" d="M71.3,8.37v10.88h-.77v-10.88h.77Z"/><rect class="c" x="70.07" y="7.93" width="1.67" height="11.77"/><path class="c" d="M83.87,1.13h.77v11l4.31-3.78h1l-4.99,4.36,6.25,6.54h-1.04l-5.52-5.74v5.74h-.77V1.13h0Z"/><polygon class="c" points="92.26 19.7 89.97 19.7 85.09 14.62 85.09 19.7 83.42 19.7 83.42 .68 85.09 .68 85.09 11.14 88.78 7.9 91.15 7.9 85.61 12.74 92.26 19.7"/><path class="b" d="M3.2,16.41C1.37,14.52.45,12.31.45,9.79s.93-4.72,2.78-6.56C5.09,1.37,7.32.45,9.92.45s4.82.92,6.66,2.76c1.84,1.84,2.76,4.03,2.76,6.58s-.91,4.76-2.74,6.64c-1.82,1.88-4,2.82-6.54,2.82h-.37c-2.5,0-4.67-.94-6.5-2.83h0ZM18.55,9.83c0-2.38-.85-4.42-2.53-6.13-1.69-1.7-3.72-2.56-6.1-2.56s-4.42.85-6.11,2.56c-1.7,1.7-2.54,3.74-2.54,6.13s.85,4.43,2.54,6.14c1.7,1.71,3.73,2.57,6.1,2.57s4.41-.86,6.1-2.57c1.7-1.71,2.54-3.76,2.54-6.14Z"/><path class="b" d="M10.07,19.7h-.37c-2.62,0-4.91-1-6.83-2.97-1.91-1.97-2.87-4.3-2.87-6.94S.98,4.83,2.92,2.9C4.85.98,7.21,0,9.92,0s5.06.97,6.98,2.89c1.92,1.92,2.89,4.24,2.89,6.89s-.97,4.99-2.86,6.95c-1.9,1.96-4.21,2.96-6.86,2.96h0ZM9.91,1.6c-2.24,0-4.19.82-5.8,2.42-1.6,1.61-2.41,3.56-2.41,5.81s.81,4.21,2.41,5.83c1.6,1.61,3.55,2.44,5.78,2.44s4.18-.82,5.78-2.44c1.6-1.61,2.41-3.58,2.41-5.83s-.81-4.2-2.4-5.81c-1.59-1.61-3.54-2.42-5.78-2.42h0Z"/><path class="b" d="M38.53,17.52c-1.12-1.15-1.67-2.5-1.67-4.03s.56-2.86,1.7-3.98c1.13-1.12,2.49-1.69,4.08-1.69s2.95.56,4.07,1.69c1.12,1.12,1.69,2.45,1.69,4s-.55,2.89-1.64,4.03c-1.1,1.15-2.43,1.72-4,1.72h-.22c-1.55,0-2.88-.58-4-1.73h0ZM47.61,13.55c0-1.36-.49-2.55-1.46-3.55-.98-1-2.14-1.5-3.5-1.5s-2.53.5-3.52,1.51c-1,1.01-1.49,2.19-1.49,3.55s.5,2.53,1.49,3.52c.99,1,2.17,1.49,3.53,1.49s2.53-.5,3.5-1.49,1.45-2.17,1.45-3.53Z"/><path class="b" d="M42.74,19.7h-.22c-1.67,0-3.13-.63-4.32-1.87h0c-1.19-1.24-1.8-2.7-1.8-4.34s.62-3.1,1.83-4.3c1.21-1.21,2.69-1.81,4.4-1.81s3.18.61,4.39,1.82c1.21,1.21,1.82,2.66,1.82,4.31s-.59,3.11-1.77,4.34c-1.18,1.24-2.63,1.86-4.32,1.86h0ZM42.64,8.95c-1.24,0-2.29.45-3.2,1.38-.92.93-1.36,1.99-1.36,3.23s.44,2.29,1.36,3.2,1.97,1.36,3.22,1.36,2.29-.44,3.18-1.36c.89-.91,1.33-1.97,1.33-3.22s-.44-2.31-1.34-3.23c-.9-.92-1.94-1.37-3.18-1.37h0Z"/><path class="b" d="M69.12,5.89c-.49-.5-.73-1.09-.73-1.75s.25-1.24.74-1.73c.49-.49,1.08-.73,1.78-.73s1.28.25,1.77.73.73,1.07.73,1.74-.24,1.25-.71,1.75c-.48.5-1.06.75-1.74.75h-.1c-.67,0-1.25-.25-1.74-.75h0ZM73.07,4.16c0-.59-.21-1.11-.64-1.54-.43-.44-.93-.65-1.52-.65s-1.1.22-1.53.66-.65.95-.65,1.54.22,1.1.65,1.53.94.65,1.54.65,1.1-.22,1.52-.65c.42-.43.63-.94.63-1.54Z"/><path class="b" d="M70.95,7.09h-.1c-.8,0-1.49-.3-2.06-.89-.56-.59-.85-1.28-.85-2.06s.29-1.48.87-2.05c.58-.57,1.28-.86,2.09-.86s1.51.29,2.09.86c.58.58.86,1.27.86,2.06s-.28,1.48-.84,2.06c-.56.59-1.26.89-2.06.89h0ZM70.91,2.41c-.47,0-.86.17-1.21.52-.35.35-.52.76-.52,1.23s.17.86.52,1.21.74.52,1.22.52.86-.17,1.2-.51c.34-.35.5-.75.5-1.22s-.17-.88-.51-1.23c-.34-.35-.73-.52-1.2-.52Z"/><path class="b" d="M111.4,5.89c-.49-.5-.73-1.09-.73-1.75s.25-1.24.74-1.73c.49-.49,1.08-.73,1.78-.73s1.28.25,1.77.73.73,1.07.73,1.74-.24,1.25-.71,1.75-1.06.75-1.74.75h-.1c-.67,0-1.25-.25-1.74-.75h0ZM115.34,4.16c0-.59-.21-1.11-.64-1.54-.43-.44-.93-.65-1.52-.65s-1.1.22-1.53.66-.65.95-.65,1.54.22,1.1.65,1.53.94.65,1.54.65,1.1-.22,1.52-.65c.42-.43.63-.94.63-1.54Z"/><path class="b" d="M113.23,7.09h-.1c-.8,0-1.49-.3-2.06-.89-.56-.59-.85-1.28-.85-2.06s.29-1.48.87-2.05c.58-.57,1.28-.86,2.09-.86s1.51.29,2.09.86c.58.58.86,1.27.86,2.06s-.28,1.48-.84,2.06c-.56.59-1.26.89-2.06.89h0ZM113.18,2.41c-.47,0-.86.17-1.21.52-.35.35-.52.76-.52,1.23s.17.86.52,1.21.74.52,1.22.52.86-.17,1.2-.51c.34-.35.5-.75.5-1.22s-.17-.88-.51-1.23c-.34-.35-.73-.52-1.2-.52h0Z"/><path class="b" d="M93.61,17.51c-1.12-1.15-1.67-2.5-1.67-4.03s.56-2.86,1.7-3.98c1.13-1.12,2.49-1.69,4.08-1.69s2.95.56,4.07,1.69c1.12,1.12,1.69,2.45,1.69,4s-.55,2.89-1.65,4.03c-1.1,1.15-2.43,1.72-4,1.72h-.22c-1.55,0-2.88-.58-4-1.73ZM102.68,13.54c0-1.36-.49-2.55-1.46-3.55-.98-1-2.14-1.5-3.5-1.5s-2.53.5-3.52,1.51c-1,1.01-1.49,2.19-1.49,3.55s.5,2.53,1.49,3.52c.99,1,2.17,1.49,3.53,1.49s2.53-.5,3.5-1.49,1.45-2.17,1.45-3.53Z"/><path class="b" d="M97.82,19.7h-.22c-1.67,0-3.13-.63-4.32-1.87-1.19-1.24-1.8-2.7-1.8-4.34s.62-3.1,1.83-4.3c1.21-1.21,2.69-1.81,4.4-1.81s3.18.61,4.39,1.82,1.82,2.66,1.82,4.31-.59,3.11-1.77,4.34c-1.18,1.24-2.63,1.86-4.32,1.86h0ZM97.72,8.94c-1.24,0-2.29.45-3.2,1.38-.92.93-1.36,1.99-1.36,3.23s.44,2.29,1.36,3.2c.91.91,1.97,1.36,3.22,1.36s2.29-.44,3.18-1.36c.89-.91,1.33-1.97,1.33-3.22s-.44-2.31-1.34-3.23c-.9-.92-1.94-1.37-3.18-1.37h0Z"/><path class="c" d="M110.1,18.56v.68c-1.15,0-2.12-.38-2.93-1.15-.81-.77-1.21-1.75-1.21-2.94V3.82h.77v4.41h3.34v.68h-3.34v6.25c0,.98.32,1.8.98,2.45.65.65,1.45.97,2.39.97h0Z"/><path class="c" d="M110.55,19.69h-.45c-1.26,0-2.35-.43-3.24-1.27-.89-.85-1.35-1.95-1.35-3.27V3.37h1.67v4.41h3.34v1.58h-3.34v5.8c0,.87.28,1.57.85,2.12.57.56,1.25.84,2.07.84h.45v1.58h0Z"/><path class="c" d="M113.56,8.37v10.88h-.77v-10.88h.77Z"/><rect class="c" x="112.34" y="7.93" width="1.67" height="11.77"/><path class="c" d="M122.5,19.25h-.22c-1.55,0-2.88-.58-4-1.72s-1.67-2.49-1.67-4.03.56-2.87,1.7-4c1.13-1.12,2.52-1.69,4.16-1.69s3.05.62,4.21,1.87v1.24c-.5-.74-1.13-1.33-1.9-1.77-.77-.44-1.57-.65-2.41-.65-1.34,0-2.51.5-3.5,1.49-1,1-1.49,2.18-1.49,3.55s.5,2.56,1.49,3.55c.99,1,2.16,1.49,3.5,1.49.84,0,1.64-.22,2.41-.65s1.4-1.03,1.9-1.79v1.26c-1.13,1.24-2.53,1.87-4.19,1.87h0ZM126.06,3.33l-3.2,2.78h-.73l-3.25-2.78h1.02l2.57,2.2,2.59-2.2h1,0Z"/><path class="c" d="M122.5,19.7h-.22c-1.67,0-3.12-.62-4.32-1.85-1.19-1.23-1.8-2.69-1.8-4.34s.62-3.11,1.83-4.31c1.21-1.21,2.72-1.81,4.48-1.81s3.3.68,4.54,2.01l.12.13v2.89l-.82-1.22c-.46-.68-1.05-1.23-1.75-1.63-.7-.4-1.43-.59-2.19-.59-1.23,0-2.27.44-3.18,1.36-.91.91-1.36,1.97-1.36,3.23s.44,2.32,1.36,3.23c.91.91,1.96,1.36,3.18,1.36.76,0,1.49-.2,2.19-.59.7-.4,1.29-.95,1.75-1.65l.83-1.25v2.93l-.12.13c-1.21,1.34-2.74,2.01-4.52,2.01h0ZM123.03,6.57h-1.06l-4.3-3.68h2.4l2.4,2.06,2.42-2.06h2.36l-4.23,3.68h0Z"/><path class="c" d="M134.63,19.24h-.22c-1.54,0-2.87-.58-4.01-1.73-1.14-1.15-1.71-2.5-1.71-4.03s.56-2.86,1.7-3.98c1.13-1.12,2.53-1.69,4.19-1.69s3.09.66,4.29,1.99l-7.61,7.51c1.05.84,2.06,1.26,3.03,1.26s1.84-.22,2.6-.67,1.4-1.04,1.9-1.78v1.24c-1.15,1.26-2.54,1.89-4.16,1.89h0ZM134.38,8.48c-1.28,0-2.42.5-3.41,1.49-1,1-1.49,2.14-1.49,3.43s.43,2.42,1.28,3.39l7.05-7c-1-.87-2.14-1.31-3.43-1.31h0Z"/><path class="c" d="M134.63,19.69h-.22c-1.65,0-3.11-.63-4.33-1.87-1.22-1.24-1.84-2.7-1.84-4.35s.62-3.1,1.83-4.3,2.73-1.81,4.51-1.81,3.34.72,4.62,2.14l.29.32-7.54,7.45c.82.57,1.6.86,2.34.86.88,0,1.69-.2,2.38-.61.7-.41,1.3-.96,1.75-1.64l.82-1.22v2.88l-.12.13c-1.23,1.35-2.74,2.03-4.5,2.03h.01ZM134.38,8.93c-1.17,0-2.18.44-3.1,1.36-.91.91-1.36,1.93-1.36,3.11,0,1.03.29,1.92.87,2.72l6.34-6.29c-.82-.6-1.73-.89-2.75-.89h0Z"/><path class="c" d="M141.61,1.13h.77v11l4.31-3.78h1l-4.99,4.36,6.25,6.54h-1.04l-5.52-5.74v5.74h-.77V1.13h0Z"/><polygon class="c" points="150 19.7 147.71 19.7 142.84 14.62 142.84 19.7 141.16 19.7 141.16 .68 142.84 .68 142.84 11.14 146.53 7.9 148.89 7.9 143.35 12.74 150 19.7"/></svg>