<?xml version="1.0" encoding="UTF-8"?>
<svg id="Layer_1" data-name="Layer 1" xmlns="http://www.w3.org/2000/svg" viewBox="0 0 250 32.84">
  <defs>
    <style>
      .cls-1 {
        fill: #575858;
      }

      .cls-2 {
        fill: #f7b132;
      }
    </style>
  </defs>
  <g>
    <path class="cls-1" d="M43.7,30.94v1.13c-1.91,0-3.54-.64-4.88-1.92-1.35-1.28-2.02-2.91-2.02-4.9V6.36h1.29v7.35h5.57v1.13h-5.57v10.41c0,1.64.54,3,1.63,4.08,1.09,1.08,2.42,1.61,3.98,1.61Z"/>
    <path class="cls-1" d="M44.45,32.82h-.75c-2.1,0-3.92-.71-5.4-2.12-1.49-1.42-2.25-3.25-2.25-5.45V5.61h2.79v7.35h5.57v2.63h-5.57v9.67c0,1.45.46,2.61,1.41,3.54.95.94,2.08,1.4,3.45,1.4h.75v2.63Z"/>
  </g>
  <g>
    <path class="cls-1" d="M54.36,14.6c-1.43,0-2.68.54-3.77,1.61-1.09,1.08-1.63,2.33-1.63,3.75v12.11h-1.29V13.91h1.29v2.7c.48-.91,1.24-1.67,2.26-2.26,1.02-.59,2.17-.89,3.43-.89s2.48.43,3.63,1.29v1.61c-1.18-1.18-2.49-1.78-3.92-1.78Z"/>
    <path class="cls-1" d="M49.7,32.83h-2.79V13.16h2.79v1.35c.34-.29.72-.56,1.14-.8,1.13-.66,2.41-.99,3.81-.99s2.8.48,4.08,1.44l.3.22v3.8l-1.28-1.28c-1.05-1.05-2.16-1.56-3.39-1.56s-2.3.46-3.25,1.4c-.95.94-1.41,1.99-1.41,3.22v12.86Z"/>
  </g>
  <g>
    <path class="cls-1" d="M96.1,5.65l-5.33,4.64h-1.21l-5.41-4.64h1.7l4.28,3.67,4.32-3.67h1.66ZM89.56,14.12c-.7,0-1.32.23-1.86.69-.54.46-.81,1.02-.81,1.7s.3,1.29.91,1.86c.61.57,1.33,1.08,2.18,1.55.85.47,1.7.98,2.56,1.51.86.54,1.59,1.23,2.2,2.06.61.83.91,1.79.91,2.87,0,1.59-.6,2.94-1.8,4.06-1.2,1.12-2.64,1.68-4.34,1.68-1.08,0-2.08-.24-3.01-.71-.93-.47-1.61-1.1-2.04-1.88v-1.94c1.02,2.26,2.66,3.39,4.92,3.39,1.4,0,2.58-.43,3.53-1.29.96-.86,1.43-1.82,1.43-2.89s-.3-1.96-.91-2.68c-.61-.73-1.34-1.35-2.2-1.86-.86-.51-1.72-1.02-2.56-1.51-.85-.5-1.57-1.1-2.18-1.82-.61-.71-.91-1.55-.91-2.5s.38-1.76,1.15-2.42c.77-.66,1.76-.99,2.97-.99s2.25.47,3.11,1.41v1.66c-.86-1.29-1.95-1.94-3.27-1.94Z"/>
    <path class="cls-1" d="M89.52,32.84c-1.19,0-2.32-.26-3.35-.79-1.06-.54-1.85-1.27-2.36-2.18l-.09-.17v-5.61l1.43,3.17c.9,1.99,2.29,2.95,4.24,2.95,1.22,0,2.21-.36,3.03-1.1.8-.72,1.19-1.48,1.19-2.33,0-.89-.24-1.61-.73-2.2-.55-.66-1.22-1.23-2.01-1.69-.86-.51-1.71-1.01-2.56-1.51-.92-.54-1.71-1.2-2.37-1.98-.72-.85-1.09-1.85-1.09-2.99s.47-2.19,1.41-2.99c.9-.78,2.07-1.17,3.46-1.17s2.66.56,3.66,1.66l.2.21v4.42l-1.37-2.06c-.72-1.08-1.59-1.6-2.65-1.6-.52,0-.97.17-1.37.51-.37.31-.54.67-.54,1.12s.22.89.67,1.31c.56.52,1.24,1.01,2.03,1.45.86.48,1.73.99,2.6,1.53.94.59,1.75,1.35,2.41,2.25.7.96,1.05,2.07,1.05,3.31,0,1.8-.68,3.35-2.03,4.61-1.34,1.25-2.97,1.88-4.85,1.88ZM91.05,11.04h-1.77l-7.16-6.14h4l4,3.44,4.04-3.44h3.93l-7.05,6.14Z"/>
  </g>
  <g>
    <path class="cls-1" d="M100.62,1.88h1.29v18.33l7.19-6.3h1.66l-8.32,7.27,10.42,10.9h-1.74l-9.2-9.57v9.57h-1.29V1.88Z"/>
    <polygon class="cls-1" points="114.61 32.83 110.8 32.83 102.66 24.37 102.66 32.83 99.87 32.83 99.87 1.13 102.66 1.13 102.66 18.56 108.82 13.16 112.75 13.16 103.52 21.23 114.61 32.83"/>
  </g>
  <g>
    <path class="cls-1" d="M118.83,13.95v18.13h-1.29V13.95h1.29Z"/>
    <rect class="cls-1" x="116.78" y="13.21" width="2.79" height="19.62"/>
  </g>
  <g>
    <path class="cls-1" d="M139.78,1.88h1.29v18.33l7.19-6.3h1.66l-8.32,7.27,10.42,10.9h-1.74l-9.2-9.57v9.57h-1.29V1.88Z"/>
    <polygon class="cls-1" points="153.76 32.83 149.95 32.83 141.82 24.37 141.82 32.83 139.03 32.83 139.03 1.13 141.82 1.13 141.82 18.56 147.97 13.16 151.91 13.16 142.68 21.23 153.76 32.83"/>
  </g>
  <g>
    <path class="cls-2" d="M5.33,27.35c-3.05-3.15-4.58-6.83-4.58-11.04s1.55-7.86,4.64-10.94C8.49,2.29,12.2.75,16.53.75s8.03,1.53,11.1,4.6c3.07,3.07,4.6,6.72,4.6,10.96s-1.52,7.93-4.56,11.06c-3.04,3.14-6.67,4.7-10.9,4.7h-.61c-4.17,0-7.78-1.57-10.84-4.72ZM30.91,16.39c0-3.97-1.41-7.37-4.22-10.21-2.81-2.84-6.2-4.26-10.17-4.26s-7.37,1.42-10.19,4.26c-2.83,2.84-4.24,6.24-4.24,10.21s1.41,7.38,4.24,10.23c2.83,2.85,6.22,4.28,10.17,4.28s7.35-1.43,10.17-4.28c2.83-2.85,4.24-6.26,4.24-10.23Z"/>
    <path class="cls-2" d="M16.78,32.83h-.61c-4.36,0-8.19-1.67-11.38-4.95C1.61,24.6,0,20.71,0,16.31S1.64,8.05,4.86,4.84C8.09,1.63,12.02,0,16.53,0s8.43,1.62,11.63,4.82c3.2,3.2,4.82,7.07,4.82,11.49s-1.61,8.32-4.77,11.58c-3.17,3.27-7.02,4.93-11.44,4.93ZM16.51,2.67c-3.74,0-6.99,1.36-9.66,4.04-2.67,2.68-4.02,5.94-4.02,9.68s1.35,7.01,4.02,9.71c2.67,2.69,5.91,4.06,9.64,4.06s6.97-1.36,9.64-4.06c2.67-2.69,4.02-5.96,4.02-9.71s-1.35-7-4-9.69c-2.65-2.68-5.9-4.04-9.64-4.04Z"/>
  </g>
  <g>
    <path class="cls-2" d="M64.21,29.2c-1.86-1.92-2.79-4.16-2.79-6.72s.94-4.77,2.83-6.64c1.88-1.87,4.15-2.81,6.8-2.81s4.91.94,6.78,2.81c1.87,1.87,2.81,4.09,2.81,6.66s-.91,4.81-2.74,6.72c-1.83,1.91-4.05,2.87-6.66,2.87h-.36c-2.58,0-4.8-.96-6.66-2.89ZM79.35,22.58c0-2.27-.81-4.25-2.44-5.91-1.63-1.67-3.57-2.5-5.83-2.5s-4.22.84-5.87,2.52c-1.66,1.68-2.48,3.65-2.48,5.91s.83,4.22,2.48,5.87c1.65,1.66,3.62,2.48,5.89,2.48s4.22-.83,5.83-2.48c1.61-1.65,2.42-3.62,2.42-5.89Z"/>
    <path class="cls-2" d="M71.23,32.84h-.36c-2.78,0-5.21-1.05-7.2-3.12h0c-1.99-2.06-3-4.5-3-7.24s1.03-5.17,3.05-7.17c2.02-2.01,4.49-3.02,7.33-3.02s5.3,1.02,7.31,3.03c2.01,2.01,3.03,4.43,3.03,7.19s-.99,5.19-2.95,7.24c-1.97,2.06-4.39,3.1-7.2,3.1ZM71.07,14.91c-2.07,0-3.82.75-5.34,2.3-1.53,1.55-2.27,3.31-2.27,5.39s.74,3.82,2.26,5.34c1.52,1.52,3.28,2.26,5.36,2.26s3.81-.74,5.3-2.26c1.49-1.52,2.21-3.28,2.21-5.37s-.73-3.85-2.23-5.39c-1.5-1.53-3.23-2.28-5.3-2.28Z"/>
  </g>
  <g>
    <path class="cls-2" d="M115.2,9.81c-.81-.84-1.21-1.81-1.21-2.92s.41-2.07,1.23-2.89c.82-.81,1.8-1.22,2.96-1.22s2.14.41,2.95,1.22c.81.81,1.22,1.78,1.22,2.9s-.4,2.09-1.19,2.92c-.8.83-1.76,1.25-2.9,1.25h-.16c-1.12,0-2.09-.42-2.9-1.25ZM121.78,6.93c0-.99-.35-1.85-1.06-2.57-.71-.73-1.55-1.09-2.54-1.09s-1.83.37-2.55,1.1c-.72.73-1.08,1.59-1.08,2.57s.36,1.83,1.08,2.55c.72.72,1.57,1.08,2.56,1.08s1.83-.36,2.54-1.08c.7-.72,1.05-1.57,1.05-2.56Z"/>
    <path class="cls-2" d="M118.25,11.82h-.16c-1.33,0-2.49-.5-3.44-1.48-.94-.98-1.42-2.14-1.42-3.44s.49-2.46,1.45-3.42c.96-.95,2.13-1.44,3.49-1.44s2.52.48,3.48,1.44c.96.96,1.44,2.11,1.44,3.43s-.47,2.47-1.4,3.44c-.94.98-2.1,1.48-3.44,1.48ZM118.18,4.02c-.78,0-1.44.29-2.02.87-.58.59-.86,1.26-.86,2.05s.28,1.44.86,2.02c.58.58,1.24.86,2.03.86s1.44-.28,2-.85c.57-.58.84-1.25.84-2.04s-.28-1.46-.85-2.05c-.57-.58-1.22-.86-2-.86Z"/>
  </g>
  <g>
    <path class="cls-2" d="M185.66,9.81c-.81-.84-1.21-1.81-1.21-2.92s.41-2.07,1.23-2.89c.82-.81,1.8-1.22,2.96-1.22s2.14.41,2.95,1.22c.81.81,1.22,1.78,1.22,2.9s-.4,2.09-1.19,2.92-1.76,1.25-2.9,1.25h-.16c-1.12,0-2.09-.42-2.9-1.25ZM192.24,6.93c0-.99-.35-1.85-1.06-2.57-.71-.73-1.55-1.09-2.54-1.09s-1.83.37-2.55,1.1c-.72.73-1.08,1.59-1.08,2.57s.36,1.83,1.08,2.55c.72.72,1.57,1.08,2.56,1.08s1.83-.36,2.54-1.08c.7-.72,1.05-1.57,1.05-2.56Z"/>
    <path class="cls-2" d="M188.71,11.81h-.16c-1.33,0-2.49-.5-3.44-1.48-.94-.98-1.42-2.14-1.42-3.44s.49-2.46,1.45-3.42c.96-.95,2.13-1.44,3.49-1.44s2.52.48,3.48,1.44c.96.96,1.44,2.11,1.44,3.43s-.47,2.47-1.4,3.44c-.94.98-2.1,1.48-3.44,1.48ZM188.64,4.02c-.78,0-1.44.29-2.02.87-.58.59-.86,1.26-.86,2.05s.28,1.44.86,2.02c.58.58,1.24.86,2.03.86s1.44-.28,2-.85c.57-.58.84-1.25.84-2.04s-.28-1.46-.85-2.05c-.57-.58-1.22-.86-2-.86Z"/>
  </g>
  <g>
    <path class="cls-2" d="M156.01,29.19c-1.86-1.92-2.79-4.16-2.79-6.72s.94-4.77,2.83-6.64c1.88-1.87,4.15-2.81,6.8-2.81s4.91.94,6.78,2.81c1.87,1.87,2.81,4.09,2.81,6.66s-.91,4.81-2.75,6.72c-1.83,1.91-4.05,2.87-6.66,2.87h-.36c-2.58,0-4.8-.96-6.66-2.89ZM171.14,22.57c0-2.27-.81-4.25-2.44-5.91-1.63-1.67-3.57-2.5-5.83-2.5s-4.22.84-5.87,2.52c-1.66,1.68-2.48,3.65-2.48,5.91s.83,4.22,2.48,5.87c1.65,1.66,3.62,2.48,5.89,2.48s4.22-.83,5.83-2.48c1.61-1.65,2.42-3.62,2.42-5.89Z"/>
    <path class="cls-2" d="M163.03,32.83h-.36c-2.78,0-5.21-1.05-7.2-3.12-1.99-2.06-3-4.5-3-7.24s1.03-5.17,3.05-7.17c2.02-2.01,4.49-3.02,7.33-3.02s5.3,1.02,7.31,3.03c2.01,2.01,3.03,4.43,3.03,7.19s-.99,5.19-2.95,7.24c-1.97,2.06-4.39,3.1-7.2,3.1ZM162.87,14.9c-2.07,0-3.82.75-5.34,2.3-1.53,1.55-2.27,3.31-2.27,5.39s.74,3.82,2.26,5.34c1.52,1.52,3.28,2.26,5.36,2.26s3.82-.74,5.3-2.26c1.49-1.52,2.21-3.28,2.21-5.37s-.73-3.85-2.23-5.39c-1.5-1.53-3.23-2.28-5.3-2.28Z"/>
  </g>
  <g>
    <path class="cls-1" d="M183.5,30.94v1.13c-1.91,0-3.54-.64-4.88-1.92-1.35-1.28-2.02-2.91-2.02-4.9V6.36h1.29v7.35h5.57v1.13h-5.57v10.41c0,1.64.54,3,1.63,4.08,1.09,1.08,2.42,1.61,3.98,1.61Z"/>
    <path class="cls-1" d="M184.25,32.82h-.75c-2.1,0-3.92-.71-5.4-2.12-1.49-1.42-2.25-3.25-2.25-5.45V5.61h2.79v7.35h5.57v2.63h-5.57v9.67c0,1.45.46,2.61,1.41,3.54.95.94,2.08,1.4,3.45,1.4h.75v2.63Z"/>
  </g>
  <g>
    <path class="cls-1" d="M189.27,13.95v18.13h-1.29V13.95h1.29Z"/>
    <rect class="cls-1" x="187.23" y="13.21" width="2.79" height="19.62"/>
  </g>
  <g>
    <path class="cls-1" d="M204.16,32.08h-.36c-2.58,0-4.8-.96-6.66-2.87-1.86-1.91-2.79-4.15-2.79-6.72s.94-4.79,2.83-6.66c1.88-1.87,4.2-2.81,6.94-2.81s5.09,1.04,7.02,3.11v2.06c-.83-1.24-1.89-2.22-3.17-2.95-1.28-.73-2.62-1.09-4.02-1.09-2.23,0-4.18.83-5.83,2.48-1.66,1.66-2.48,3.63-2.48,5.91s.83,4.26,2.48,5.91c1.65,1.66,3.6,2.48,5.83,2.48,1.4,0,2.74-.36,4.02-1.09,1.28-.73,2.33-1.72,3.17-2.99v2.1c-1.88,2.07-4.21,3.11-6.98,3.11ZM210.1,5.55l-5.33,4.64h-1.21l-5.41-4.64h1.7l4.28,3.67,4.32-3.67h1.66Z"/>
    <path class="cls-1" d="M204.16,32.83h-.36c-2.78,0-5.2-1.04-7.2-3.09-1.99-2.05-3-4.48-3-7.24s1.03-5.19,3.05-7.19c2.02-2.01,4.53-3.02,7.47-3.02s5.5,1.13,7.57,3.35l.2.22v4.81l-1.37-2.03c-.77-1.14-1.75-2.05-2.92-2.71-1.16-.66-2.38-.99-3.65-.99-2.05,0-3.78.74-5.3,2.26-1.52,1.52-2.26,3.28-2.26,5.38s.74,3.86,2.26,5.38c1.52,1.52,3.26,2.26,5.3,2.26,1.26,0,2.49-.33,3.65-.99,1.17-.66,2.15-1.59,2.91-2.75l1.38-2.09v4.89l-.2.21c-2.02,2.23-4.56,3.35-7.54,3.35ZM205.05,10.95h-1.77l-7.16-6.14h4l4,3.44,4.04-3.44h3.93l-7.05,6.14Z"/>
  </g>
  <g>
    <path class="cls-1" d="M224.39,32.07h-.36c-2.56,0-4.78-.96-6.68-2.89-1.9-1.92-2.85-4.16-2.85-6.72s.94-4.77,2.83-6.64c1.88-1.87,4.21-2.81,6.98-2.81s5.15,1.1,7.15,3.31l-12.68,12.51c1.75,1.4,3.43,2.1,5.05,2.1s3.06-.37,4.34-1.11c1.28-.74,2.33-1.73,3.17-2.97v2.06c-1.91,2.1-4.23,3.15-6.94,3.15ZM223.96,14.14c-2.14,0-4.04.83-5.69,2.48-1.66,1.66-2.48,3.56-2.48,5.71s.71,4.04,2.14,5.65l11.75-11.67c-1.67-1.45-3.57-2.18-5.71-2.18Z"/>
    <path class="cls-1" d="M224.39,32.82h-.36c-2.75,0-5.18-1.05-7.22-3.11-2.03-2.06-3.06-4.5-3.06-7.25s1.03-5.16,3.05-7.17c2.02-2.01,4.55-3.02,7.51-3.02s5.57,1.2,7.7,3.56l.48.53-12.57,12.41c1.36.95,2.67,1.43,3.9,1.43,1.47,0,2.81-.34,3.96-1.01,1.17-.68,2.16-1.6,2.92-2.74l1.37-2.04v4.8l-.2.21c-2.05,2.25-4.57,3.39-7.5,3.39ZM223.96,14.89c-1.95,0-3.64.74-5.16,2.26-1.52,1.52-2.26,3.22-2.26,5.18,0,1.71.48,3.2,1.45,4.53l10.56-10.49c-1.37-1-2.88-1.49-4.59-1.49Z"/>
  </g>
  <g>
    <path class="cls-1" d="M236.01,1.88h1.29v18.33l7.19-6.3h1.66l-8.32,7.27,10.42,10.9h-1.74l-9.2-9.57v9.57h-1.29V1.88Z"/>
    <polygon class="cls-1" points="250 32.83 246.19 32.83 238.06 24.37 238.06 32.83 235.27 32.83 235.27 1.13 238.06 1.13 238.06 18.56 244.21 13.16 248.15 13.16 238.91 21.23 250 32.83"/>
  </g>
</svg>